<svg class="railroad-diagram" height="109" viewBox="0 0 373.5 109" width="373.5" xmlns="http://www.w3.org/2000/svg" xmlns:xlink="http://www.w3.org/1999/xlink">
<g transform="translate(.5 .5)">
<g>
<path d="M20 30v20m10 -20v20m-10 -10h20" /></g><path d="M40 40h10" /><g>
<path d="M50 40h0.0" /><path d="M323.5 40h0.0" /><g class="non-terminal ">
<path d="M50.0 40h0.0" /><path d="M112.5 40h0.0" /><rect height="22" width="62.5" x="50" y="29"></rect><text x="81.25" y="44">expr6</text></g><path d="M112.5 40h10" /><g>
<path d="M122.5 40h0.0" /><path d="M323.5 40h0.0" /><path d="M122.5 40a10 10 0 0 0 10 -10v0a10 10 0 0 1 10 -10" /><g>
<path d="M142.5 20h161.0" /></g><path d="M303.5 20a10 10 0 0 1 10 10v0a10 10 0 0 0 10 10" /><path d="M122.5 40h20" /><g>
<path d="M142.5 40h0.0" /><path d="M303.5 40h0.0" /><path d="M142.5 40h10" /><g>
<path d="M152.5 40h0.0" /><path d="M293.5 40h0.0" /><g>
<path d="M152.5 40h0.0" /><path d="M221.0 40h0.0" /><path d="M152.5 40h20" /><g class="terminal ">
<path d="M172.5 40h0.0" /><path d="M201.0 40h0.0" /><rect height="22" rx="10" ry="10" width="28.5" x="172.5" y="29"></rect><text x="186.75" y="44">+</text></g><path d="M201.0 40h20" /><path d="M152.5 40a10 10 0 0 1 10 10v10a10 10 0 0 0 10 10" /><g class="terminal ">
<path d="M172.5 70h0.0" /><path d="M201.0 70h0.0" /><rect height="22" rx="10" ry="10" width="28.5" x="172.5" y="59"></rect><text x="186.75" y="74">-</text></g><path d="M201.0 70a10 10 0 0 0 10 -10v-10a10 10 0 0 1 10 -10" /></g><path d="M221.0 40h10" /><g class="non-terminal ">
<path d="M231.0 40h0.0" /><path d="M293.5 40h0.0" /><rect height="22" width="62.5" x="231" y="29"></rect><text x="262.25" y="44">expr6</text></g></g><path d="M293.5 40h10" /><path d="M152.5 40a10 10 0 0 0 -10 10v29a10 10 0 0 0 10 10" /><g>
<path d="M152.5 89h141.0" /></g><path d="M293.5 89a10 10 0 0 0 10 -10v-29a10 10 0 0 0 -10 -10" /></g><path d="M303.5 40h20" /></g></g><path d="M323.5 40h10" /><path d="M 333.5 40 h 20 m -10 -10 v 20 m 10 -20 v 20"></path></g><style>/* <![CDATA[ */
	svg.railroad-diagram {
		background-color:hsl(30,20%,95%);
	}
	svg.railroad-diagram path {
		stroke-width:3;
		stroke:black;
		fill:rgba(0,0,0,0);
	}
	svg.railroad-diagram text {
		font:bold 14px monospace;
		text-anchor:middle;
	}
	svg.railroad-diagram text.label{
		text-anchor:start;
	}
	svg.railroad-diagram text.comment{
		font:italic 12px monospace;
	}
	svg.railroad-diagram rect{
		stroke-width:3;
		stroke:black;
		fill:hsl(120,100%,90%);
	}
	svg.railroad-diagram rect.group-box {
		stroke: gray;
		stroke-dasharray: 10 5;
		fill: none;
	}

/* ]]> */
</style></svg>