<svg class="railroad-diagram" height="182" viewBox="0 0 233.5 182" width="233.5" xmlns="http://www.w3.org/2000/svg" xmlns:xlink="http://www.w3.org/1999/xlink">
<g transform="translate(.5 .5)">
<g>
<path d="M20 21v20m10 -20v20m-10 -10h20" /></g><g>
<path d="M40 31h0.0" /><path d="M193.5 31h0.0" /><path d="M40.0 31h20" /><g class="non-terminal ">
<path d="M60.0 31h4.25" /><path d="M169.25 31h4.25" /><rect height="22" width="105" x="64.25" y="20"></rect><text x="116.75" y="35">print_stmt</text></g><path d="M173.5 31h20" /><path d="M40.0 31a10 10 0 0 1 10 10v10a10 10 0 0 0 10 10" /><g class="non-terminal ">
<path d="M60.0 61h0.0" /><path d="M173.5 61h0.0" /><rect height="22" width="113.5" x="60" y="50"></rect><text x="116.75" y="65">return_stmt</text></g><path d="M173.5 61a10 10 0 0 0 10 -10v-10a10 10 0 0 1 10 -10" /><path d="M40.0 31a10 10 0 0 1 10 10v40a10 10 0 0 0 10 10" /><g class="non-terminal ">
<path d="M60.0 91h4.25" /><path d="M169.25 91h4.25" /><rect height="22" width="105" x="64.25" y="80"></rect><text x="116.75" y="95">block_stmt</text></g><path d="M173.5 91a10 10 0 0 0 10 -10v-40a10 10 0 0 1 10 -10" /><path d="M40.0 31a10 10 0 0 1 10 10v70a10 10 0 0 0 10 10" /><g class="non-terminal ">
<path d="M60.0 121h29.75" /><path d="M143.75 121h29.75" /><rect height="22" width="54" x="89.75" y="110"></rect><text x="116.75" y="125">decl</text></g><path d="M173.5 121a10 10 0 0 0 10 -10v-70a10 10 0 0 1 10 -10" /><path d="M40.0 31a10 10 0 0 1 10 10v100a10 10 0 0 0 10 10" /><g>
<path d="M60.0 151h5.5" /><path d="M168.0 151h5.5" /><g class="non-terminal ">
<path d="M65.5 151h0.0" /><path d="M119.5 151h0.0" /><rect height="22" width="54" x="65.5" y="140"></rect><text x="92.5" y="155">expr</text></g><path d="M119.5 151h10" /><path d="M129.5 151h10" /><g class="terminal ">
<path d="M139.5 151h0.0" /><path d="M168.0 151h0.0" /><rect height="22" rx="10" ry="10" width="28.5" x="139.5" y="140"></rect><text x="153.75" y="155">;</text></g></g><path d="M173.5 151a10 10 0 0 0 10 -10v-100a10 10 0 0 1 10 -10" /></g><path d="M 193.5 31 h 20 m -10 -10 v 20 m 10 -20 v 20"></path></g><style>/* <![CDATA[ */
	svg.railroad-diagram {
		background-color:hsl(30,20%,95%);
	}
	svg.railroad-diagram path {
		stroke-width:3;
		stroke:black;
		fill:rgba(0,0,0,0);
	}
	svg.railroad-diagram text {
		font:bold 14px monospace;
		text-anchor:middle;
	}
	svg.railroad-diagram text.label{
		text-anchor:start;
	}
	svg.railroad-diagram text.comment{
		font:italic 12px monospace;
	}
	svg.railroad-diagram rect{
		stroke-width:3;
		stroke:black;
		fill:hsl(120,100%,90%);
	}
	svg.railroad-diagram rect.group-box {
		stroke: gray;
		stroke-dasharray: 10 5;
		fill: none;
	}

/* ]]> */
</style></svg>