<svg class="railroad-diagram" height="62" viewBox="0 0 467.0 62" width="467.0" xmlns="http://www.w3.org/2000/svg" xmlns:xlink="http://www.w3.org/1999/xlink">
<g transform="translate(.5 .5)">
<g>
<path d="M20 21v20m10 -20v20m-10 -10h20" /></g><path d="M40 31h10" /><g>
<path d="M50 31h0.0" /><path d="M417.0 31h0.0" /><g class="terminal ">
<path d="M50.0 31h0.0" /><path d="M112.5 31h0.0" /><rect height="22" rx="10" ry="10" width="62.5" x="50" y="20"></rect><text x="81.25" y="35">WHILE</text></g><path d="M112.5 31h10" /><path d="M122.5 31h10" /><g class="terminal ">
<path d="M132.5 31h0.0" /><path d="M161.0 31h0.0" /><rect height="22" rx="10" ry="10" width="28.5" x="132.5" y="20"></rect><text x="146.75" y="35">(</text></g><path d="M161.0 31h10" /><path d="M171.0 31h10" /><g class="non-terminal ">
<path d="M181.0 31h0.0" /><path d="M235.0 31h0.0" /><rect height="22" width="54" x="181" y="20"></rect><text x="208" y="35">expr</text></g><path d="M235.0 31h10" /><path d="M245.0 31h10" /><g class="terminal ">
<path d="M255.0 31h0.0" /><path d="M283.5 31h0.0" /><rect height="22" rx="10" ry="10" width="28.5" x="255" y="20"></rect><text x="269.25" y="35">)</text></g><path d="M283.5 31h10" /><path d="M293.5 31h10" /><g class="non-terminal ">
<path d="M303.5 31h0.0" /><path d="M417.0 31h0.0" /><rect height="22" width="113.5" x="303.5" y="20"></rect><text x="360.25" y="35">closed_stmt</text></g></g><path d="M417.0 31h10" /><path d="M 427.0 31 h 20 m -10 -10 v 20 m 10 -20 v 20"></path></g><style>/* <![CDATA[ */
	svg.railroad-diagram {
		background-color:hsl(30,20%,95%);
	}
	svg.railroad-diagram path {
		stroke-width:3;
		stroke:black;
		fill:rgba(0,0,0,0);
	}
	svg.railroad-diagram text {
		font:bold 14px monospace;
		text-anchor:middle;
	}
	svg.railroad-diagram text.label{
		text-anchor:start;
	}
	svg.railroad-diagram text.comment{
		font:italic 12px monospace;
	}
	svg.railroad-diagram rect{
		stroke-width:3;
		stroke:black;
		fill:hsl(120,100%,90%);
	}
	svg.railroad-diagram rect.group-box {
		stroke: gray;
		stroke-dasharray: 10 5;
		fill: none;
	}

/* ]]> */
</style></svg>