<svg class="railroad-diagram" height="62" viewBox="0 0 336.0 62" width="336.0" xmlns="http://www.w3.org/2000/svg" xmlns:xlink="http://www.w3.org/1999/xlink">
<g transform="translate(.5 .5)">
<g>
<path d="M20 21v20m10 -20v20m-10 -10h20" /></g><path d="M40 31h10" /><g>
<path d="M50 31h0.0" /><path d="M286.0 31h0.0" /><g class="non-terminal ">
<path d="M50.0 31h0.0" /><path d="M104.0 31h0.0" /><rect height="22" width="54" x="50" y="20"></rect><text x="77" y="35">lval</text></g><path d="M104.0 31h10" /><path d="M114.0 31h10" /><g class="non-terminal ">
<path d="M124.0 31h0.0" /><path d="M212.0 31h0.0" /><rect height="22" width="88" x="124" y="20"></rect><text x="168" y="35">assignOp</text></g><path d="M212.0 31h10" /><path d="M222.0 31h10" /><g class="non-terminal ">
<path d="M232.0 31h0.0" /><path d="M286.0 31h0.0" /><rect height="22" width="54" x="232" y="20"></rect><text x="259" y="35">expr</text></g></g><path d="M286.0 31h10" /><path d="M 296.0 31 h 20 m -10 -10 v 20 m 10 -20 v 20"></path></g><style>/* <![CDATA[ */
	svg.railroad-diagram {
		background-color:hsl(30,20%,95%);
	}
	svg.railroad-diagram path {
		stroke-width:3;
		stroke:black;
		fill:rgba(0,0,0,0);
	}
	svg.railroad-diagram text {
		font:bold 14px monospace;
		text-anchor:middle;
	}
	svg.railroad-diagram text.label{
		text-anchor:start;
	}
	svg.railroad-diagram text.comment{
		font:italic 12px monospace;
	}
	svg.railroad-diagram rect{
		stroke-width:3;
		stroke:black;
		fill:hsl(120,100%,90%);
	}
	svg.railroad-diagram rect.group-box {
		stroke: gray;
		stroke-dasharray: 10 5;
		fill: none;
	}

/* ]]> */
</style></svg>