<svg class="railroad-diagram" height="80" viewBox="0 0 369.0 80" width="369.0" xmlns="http://www.w3.org/2000/svg" xmlns:xlink="http://www.w3.org/1999/xlink">
<g transform="translate(.5 .5)">
<g>
<path d="M20 30v20m10 -20v20m-10 -10h20" /></g><path d="M40 40h10" /><g>
<path d="M50 40h0.0" /><path d="M319.0 40h0.0" /><g class="non-terminal ">
<path d="M50.0 40h0.0" /><path d="M112.5 40h0.0" /><rect height="22" width="62.5" x="50" y="29"></rect><text x="81.25" y="44">expr4</text></g><path d="M112.5 40h10" /><g>
<path d="M122.5 40h0.0" /><path d="M319.0 40h0.0" /><path d="M122.5 40a10 10 0 0 0 10 -10v0a10 10 0 0 1 10 -10" /><g>
<path d="M142.5 20h156.5" /></g><path d="M299.0 20a10 10 0 0 1 10 10v0a10 10 0 0 0 10 10" /><path d="M122.5 40h20" /><g>
<path d="M142.5 40h0.0" /><path d="M299.0 40h0.0" /><path d="M142.5 40h10" /><g>
<path d="M152.5 40h0.0" /><path d="M289.0 40h0.0" /><g class="terminal ">
<path d="M152.5 40h0.0" /><path d="M206.5 40h0.0" /><rect height="22" rx="10" ry="10" width="54" x="152.5" y="29"></rect><text x="179.5" y="44">LAND</text></g><path d="M206.5 40h10" /><path d="M216.5 40h10" /><g class="non-terminal ">
<path d="M226.5 40h0.0" /><path d="M289.0 40h0.0" /><rect height="22" width="62.5" x="226.5" y="29"></rect><text x="257.75" y="44">expr4</text></g></g><path d="M289.0 40h10" /><path d="M152.5 40a10 10 0 0 0 -10 10v0a10 10 0 0 0 10 10" /><g>
<path d="M152.5 60h136.5" /></g><path d="M289.0 60a10 10 0 0 0 10 -10v0a10 10 0 0 0 -10 -10" /></g><path d="M299.0 40h20" /></g></g><path d="M319.0 40h10" /><path d="M 329.0 40 h 20 m -10 -10 v 20 m 10 -20 v 20"></path></g><style>/* <![CDATA[ */
	svg.railroad-diagram {
		background-color:hsl(30,20%,95%);
	}
	svg.railroad-diagram path {
		stroke-width:3;
		stroke:black;
		fill:rgba(0,0,0,0);
	}
	svg.railroad-diagram text {
		font:bold 14px monospace;
		text-anchor:middle;
	}
	svg.railroad-diagram text.label{
		text-anchor:start;
	}
	svg.railroad-diagram text.comment{
		font:italic 12px monospace;
	}
	svg.railroad-diagram rect{
		stroke-width:3;
		stroke:black;
		fill:hsl(120,100%,90%);
	}
	svg.railroad-diagram rect.group-box {
		stroke: gray;
		stroke-dasharray: 10 5;
		fill: none;
	}

/* ]]> */
</style></svg>