<svg class="railroad-diagram" height="229" viewBox="0 0 382.0 229" width="382.0" xmlns="http://www.w3.org/2000/svg" xmlns:xlink="http://www.w3.org/1999/xlink">
<g transform="translate(.5 .5)">
<g>
<path d="M20 30v20m10 -20v20m-10 -10h20" /></g><path d="M40 40h10" /><g>
<path d="M50 40h0.0" /><path d="M332.0 40h0.0" /><g class="non-terminal ">
<path d="M50.0 40h0.0" /><path d="M112.5 40h0.0" /><rect height="22" width="62.5" x="50" y="29"></rect><text x="81.25" y="44">expr5</text></g><path d="M112.5 40h10" /><g>
<path d="M122.5 40h0.0" /><path d="M332.0 40h0.0" /><path d="M122.5 40a10 10 0 0 0 10 -10v0a10 10 0 0 1 10 -10" /><g>
<path d="M142.5 20h169.5" /></g><path d="M312.0 20a10 10 0 0 1 10 10v0a10 10 0 0 0 10 10" /><path d="M122.5 40h20" /><g>
<path d="M142.5 40h0.0" /><path d="M312.0 40h0.0" /><path d="M142.5 40h10" /><g>
<path d="M152.5 40h0.0" /><path d="M302.0 40h0.0" /><g>
<path d="M152.5 40h0.0" /><path d="M229.5 40h0.0" /><path d="M152.5 40h20" /><g class="terminal ">
<path d="M172.5 40h0.0" /><path d="M209.5 40h0.0" /><rect height="22" rx="10" ry="10" width="37" x="172.5" y="29"></rect><text x="191" y="44">EQ</text></g><path d="M209.5 40h20" /><path d="M152.5 40a10 10 0 0 1 10 10v10a10 10 0 0 0 10 10" /><g class="terminal ">
<path d="M172.5 70h0.0" /><path d="M209.5 70h0.0" /><rect height="22" rx="10" ry="10" width="37" x="172.5" y="59"></rect><text x="191" y="74">NE</text></g><path d="M209.5 70a10 10 0 0 0 10 -10v-10a10 10 0 0 1 10 -10" /><path d="M152.5 40a10 10 0 0 1 10 10v40a10 10 0 0 0 10 10" /><g class="terminal ">
<path d="M172.5 100h0.0" /><path d="M209.5 100h0.0" /><rect height="22" rx="10" ry="10" width="37" x="172.5" y="89"></rect><text x="191" y="104">LT</text></g><path d="M209.5 100a10 10 0 0 0 10 -10v-40a10 10 0 0 1 10 -10" /><path d="M152.5 40a10 10 0 0 1 10 10v70a10 10 0 0 0 10 10" /><g class="terminal ">
<path d="M172.5 130h0.0" /><path d="M209.5 130h0.0" /><rect height="22" rx="10" ry="10" width="37" x="172.5" y="119"></rect><text x="191" y="134">LE</text></g><path d="M209.5 130a10 10 0 0 0 10 -10v-70a10 10 0 0 1 10 -10" /><path d="M152.5 40a10 10 0 0 1 10 10v100a10 10 0 0 0 10 10" /><g class="terminal ">
<path d="M172.5 160h0.0" /><path d="M209.5 160h0.0" /><rect height="22" rx="10" ry="10" width="37" x="172.5" y="149"></rect><text x="191" y="164">GT</text></g><path d="M209.5 160a10 10 0 0 0 10 -10v-100a10 10 0 0 1 10 -10" /><path d="M152.5 40a10 10 0 0 1 10 10v130a10 10 0 0 0 10 10" /><g class="terminal ">
<path d="M172.5 190h0.0" /><path d="M209.5 190h0.0" /><rect height="22" rx="10" ry="10" width="37" x="172.5" y="179"></rect><text x="191" y="194">GE</text></g><path d="M209.5 190a10 10 0 0 0 10 -10v-130a10 10 0 0 1 10 -10" /></g><path d="M229.5 40h10" /><g class="non-terminal ">
<path d="M239.5 40h0.0" /><path d="M302.0 40h0.0" /><rect height="22" width="62.5" x="239.5" y="29"></rect><text x="270.75" y="44">expr5</text></g></g><path d="M302.0 40h10" /><path d="M152.5 40a10 10 0 0 0 -10 10v149a10 10 0 0 0 10 10" /><g>
<path d="M152.5 209h149.5" /></g><path d="M302.0 209a10 10 0 0 0 10 -10v-149a10 10 0 0 0 -10 -10" /></g><path d="M312.0 40h20" /></g></g><path d="M332.0 40h10" /><path d="M 342.0 40 h 20 m -10 -10 v 20 m 10 -20 v 20"></path></g><style>/* <![CDATA[ */
	svg.railroad-diagram {
		background-color:hsl(30,20%,95%);
	}
	svg.railroad-diagram path {
		stroke-width:3;
		stroke:black;
		fill:rgba(0,0,0,0);
	}
	svg.railroad-diagram text {
		font:bold 14px monospace;
		text-anchor:middle;
	}
	svg.railroad-diagram text.label{
		text-anchor:start;
	}
	svg.railroad-diagram text.comment{
		font:italic 12px monospace;
	}
	svg.railroad-diagram rect{
		stroke-width:3;
		stroke:black;
		fill:hsl(120,100%,90%);
	}
	svg.railroad-diagram rect.group-box {
		stroke: gray;
		stroke-dasharray: 10 5;
		fill: none;
	}

/* ]]> */
</style></svg>