<svg class="railroad-diagram" height="62" viewBox="0 0 663.5 62" width="663.5" xmlns="http://www.w3.org/2000/svg" xmlns:xlink="http://www.w3.org/1999/xlink">
<g transform="translate(.5 .5)">
<g>
<path d="M20 21v20m10 -20v20m-10 -10h20" /></g><path d="M40 31h10" /><g>
<path d="M50 31h0.0" /><path d="M613.5 31h0.0" /><g class="terminal ">
<path d="M50.0 31h0.0" /><path d="M95.5 31h0.0" /><rect height="22" rx="10" ry="10" width="45.5" x="50" y="20"></rect><text x="72.75" y="35">FOR</text></g><path d="M95.5 31h10" /><path d="M105.5 31h10" /><g class="terminal ">
<path d="M115.5 31h0.0" /><path d="M144.0 31h0.0" /><rect height="22" rx="10" ry="10" width="28.5" x="115.5" y="20"></rect><text x="129.75" y="35">(</text></g><path d="M144.0 31h10" /><path d="M154.0 31h10" /><g class="non-terminal ">
<path d="M164.0 31h0.0" /><path d="M252.0 31h0.0" /><rect height="22" width="88" x="164" y="20"></rect><text x="208" y="35">opt_expr</text></g><path d="M252.0 31h10" /><path d="M262.0 31h10" /><g class="terminal ">
<path d="M272.0 31h0.0" /><path d="M300.5 31h0.0" /><rect height="22" rx="10" ry="10" width="28.5" x="272" y="20"></rect><text x="286.25" y="35">;</text></g><path d="M300.5 31h10" /><path d="M310.5 31h10" /><g class="non-terminal ">
<path d="M320.5 31h0.0" /><path d="M408.5 31h0.0" /><rect height="22" width="88" x="320.5" y="20"></rect><text x="364.5" y="35">opt_expr</text></g><path d="M408.5 31h10" /><path d="M418.5 31h10" /><g class="terminal ">
<path d="M428.5 31h0.0" /><path d="M457.0 31h0.0" /><rect height="22" rx="10" ry="10" width="28.5" x="428.5" y="20"></rect><text x="442.75" y="35">;</text></g><path d="M457.0 31h10" /><path d="M467.0 31h10" /><g class="non-terminal ">
<path d="M477.0 31h0.0" /><path d="M565.0 31h0.0" /><rect height="22" width="88" x="477" y="20"></rect><text x="521" y="35">opt_expr</text></g><path d="M565.0 31h10" /><path d="M575.0 31h10" /><g class="terminal ">
<path d="M585.0 31h0.0" /><path d="M613.5 31h0.0" /><rect height="22" rx="10" ry="10" width="28.5" x="585" y="20"></rect><text x="599.25" y="35">)</text></g></g><path d="M613.5 31h10" /><path d="M 623.5 31 h 20 m -10 -10 v 20 m 10 -20 v 20"></path></g><style>/* <![CDATA[ */
	svg.railroad-diagram {
		background-color:hsl(30,20%,95%);
	}
	svg.railroad-diagram path {
		stroke-width:3;
		stroke:black;
		fill:rgba(0,0,0,0);
	}
	svg.railroad-diagram text {
		font:bold 14px monospace;
		text-anchor:middle;
	}
	svg.railroad-diagram text.label{
		text-anchor:start;
	}
	svg.railroad-diagram text.comment{
		font:italic 12px monospace;
	}
	svg.railroad-diagram rect{
		stroke-width:3;
		stroke:black;
		fill:hsl(120,100%,90%);
	}
	svg.railroad-diagram rect.group-box {
		stroke: gray;
		stroke-dasharray: 10 5;
		fill: none;
	}

/* ]]> */
</style></svg>