<svg class="railroad-diagram" height="152" viewBox="0 0 404.5 152" width="404.5" xmlns="http://www.w3.org/2000/svg" xmlns:xlink="http://www.w3.org/1999/xlink">
<g transform="translate(.5 .5)">
<g>
<path d="M20 21v20m10 -20v20m-10 -10h20" /></g><g>
<path d="M40 31h0.0" /><path d="M364.5 31h0.0" /><path d="M40.0 31h20" /><g>
<path d="M60.0 31h66.75" /><path d="M277.75 31h66.75" /><g class="terminal ">
<path d="M126.75 31h0.0" /><path d="M155.25 31h0.0" /><rect height="22" rx="10" ry="10" width="28.5" x="126.75" y="20"></rect><text x="141" y="35">(</text></g><path d="M155.25 31h10" /><path d="M165.25 31h10" /><g class="non-terminal ">
<path d="M175.25 31h0.0" /><path d="M229.25 31h0.0" /><rect height="22" width="54" x="175.25" y="20"></rect><text x="202.25" y="35">expr</text></g><path d="M229.25 31h10" /><path d="M239.25 31h10" /><g class="terminal ">
<path d="M249.25 31h0.0" /><path d="M277.75 31h0.0" /><rect height="22" rx="10" ry="10" width="28.5" x="249.25" y="20"></rect><text x="263.5" y="35">)</text></g></g><path d="M344.5 31h20" /><path d="M40.0 31a10 10 0 0 1 10 10v10a10 10 0 0 0 10 10" /><g>
<path d="M60.0 61h0.0" /><path d="M344.5 61h0.0" /><g class="terminal ">
<path d="M60.0 61h0.0" /><path d="M97.0 61h0.0" /><rect height="22" rx="10" ry="10" width="37" x="60" y="50"></rect><text x="78.5" y="65">ID</text></g><path d="M97.0 61h10" /><path d="M107.0 61h10" /><g class="terminal ">
<path d="M117.0 61h0.0" /><path d="M145.5 61h0.0" /><rect height="22" rx="10" ry="10" width="28.5" x="117" y="50"></rect><text x="131.25" y="65">(</text></g><path d="M145.5 61h10" /><path d="M155.5 61h10" /><g class="non-terminal ">
<path d="M165.5 61h0.0" /><path d="M296.0 61h0.0" /><rect height="22" width="130.5" x="165.5" y="50"></rect><text x="230.75" y="65">opt_expr_list</text></g><path d="M296.0 61h10" /><path d="M306.0 61h10" /><g class="terminal ">
<path d="M316.0 61h0.0" /><path d="M344.5 61h0.0" /><rect height="22" rx="10" ry="10" width="28.5" x="316" y="50"></rect><text x="330.25" y="65">)</text></g></g><path d="M344.5 61a10 10 0 0 0 10 -10v-10a10 10 0 0 1 10 -10" /><path d="M40.0 31a10 10 0 0 1 10 10v40a10 10 0 0 0 10 10" /><g>
<path d="M60.0 91h82.5" /><path d="M262.0 91h82.5" /><g class="terminal ">
<path d="M142.5 91h0.0" /><path d="M179.5 91h0.0" /><rect height="22" rx="10" ry="10" width="37" x="142.5" y="80"></rect><text x="161" y="95">ID</text></g><path d="M179.5 91h10" /><path d="M189.5 91h10" /><g class="non-terminal ">
<path d="M199.5 91h0.0" /><path d="M262.0 91h0.0" /><rect height="22" width="62.5" x="199.5" y="80"></rect><text x="230.75" y="95">index</text></g></g><path d="M344.5 91a10 10 0 0 0 10 -10v-40a10 10 0 0 1 10 -10" /><path d="M40.0 31a10 10 0 0 1 10 10v70a10 10 0 0 0 10 10" /><g class="non-terminal ">
<path d="M60.0 121h106.75" /><path d="M237.75 121h106.75" /><rect height="22" width="71" x="166.75" y="110"></rect><text x="202.25" y="125">factor</text></g><path d="M344.5 121a10 10 0 0 0 10 -10v-70a10 10 0 0 1 10 -10" /></g><path d="M 364.5 31 h 20 m -10 -10 v 20 m 10 -20 v 20"></path></g><style>/* <![CDATA[ */
	svg.railroad-diagram {
		background-color:hsl(30,20%,95%);
	}
	svg.railroad-diagram path {
		stroke-width:3;
		stroke:black;
		fill:rgba(0,0,0,0);
	}
	svg.railroad-diagram text {
		font:bold 14px monospace;
		text-anchor:middle;
	}
	svg.railroad-diagram text.label{
		text-anchor:start;
	}
	svg.railroad-diagram text.comment{
		font:italic 12px monospace;
	}
	svg.railroad-diagram rect{
		stroke-width:3;
		stroke:black;
		fill:hsl(120,100%,90%);
	}
	svg.railroad-diagram rect.group-box {
		stroke: gray;
		stroke-dasharray: 10 5;
		fill: none;
	}

/* ]]> */
</style></svg>