<svg class="railroad-diagram" height="62" viewBox="0 0 342.0 62" width="342.0" xmlns="http://www.w3.org/2000/svg" xmlns:xlink="http://www.w3.org/1999/xlink">
<g transform="translate(.5 .5)">
<g>
<path d="M20 21v20m10 -20v20m-10 -10h20" /></g><path d="M40 31h10" /><g>
<path d="M50 31h0.0" /><path d="M292.0 31h0.0" /><g class="terminal ">
<path d="M50.0 31h0.0" /><path d="M87.0 31h0.0" /><rect height="22" rx="10" ry="10" width="37" x="50" y="20"></rect><text x="68.5" y="35">IF</text></g><path d="M87.0 31h10" /><path d="M97.0 31h10" /><g class="terminal ">
<path d="M107.0 31h0.0" /><path d="M135.5 31h0.0" /><rect height="22" rx="10" ry="10" width="28.5" x="107" y="20"></rect><text x="121.25" y="35">(</text></g><path d="M135.5 31h10" /><path d="M145.5 31h10" /><g class="non-terminal ">
<path d="M155.5 31h0.0" /><path d="M243.5 31h0.0" /><rect height="22" width="88" x="155.5" y="20"></rect><text x="199.5" y="35">opt_expr</text></g><path d="M243.5 31h10" /><path d="M253.5 31h10" /><g class="terminal ">
<path d="M263.5 31h0.0" /><path d="M292.0 31h0.0" /><rect height="22" rx="10" ry="10" width="28.5" x="263.5" y="20"></rect><text x="277.75" y="35">)</text></g></g><path d="M292.0 31h10" /><path d="M 302.0 31 h 20 m -10 -10 v 20 m 10 -20 v 20"></path></g><style>/* <![CDATA[ */
	svg.railroad-diagram {
		background-color:hsl(30,20%,95%);
	}
	svg.railroad-diagram path {
		stroke-width:3;
		stroke:black;
		fill:rgba(0,0,0,0);
	}
	svg.railroad-diagram text {
		font:bold 14px monospace;
		text-anchor:middle;
	}
	svg.railroad-diagram text.label{
		text-anchor:start;
	}
	svg.railroad-diagram text.comment{
		font:italic 12px monospace;
	}
	svg.railroad-diagram rect{
		stroke-width:3;
		stroke:black;
		fill:hsl(120,100%,90%);
	}
	svg.railroad-diagram rect.group-box {
		stroke: gray;
		stroke-dasharray: 10 5;
		fill: none;
	}

/* ]]> */
</style></svg>