<svg class="railroad-diagram" height="62" viewBox="0 0 520.5 62" width="520.5" xmlns="http://www.w3.org/2000/svg" xmlns:xlink="http://www.w3.org/1999/xlink">
<g transform="translate(.5 .5)">
<g>
<path d="M20 21v20m10 -20v20m-10 -10h20" /></g><path d="M40 31h10" /><g>
<path d="M50 31h0.0" /><path d="M470.5 31h0.0" /><g class="non-terminal ">
<path d="M50.0 31h0.0" /><path d="M129.5 31h0.0" /><rect height="22" width="79.5" x="50" y="20"></rect><text x="89.75" y="35">if_cond</text></g><path d="M129.5 31h10" /><path d="M139.5 31h10" /><g class="non-terminal ">
<path d="M149.5 31h0.0" /><path d="M263.0 31h0.0" /><rect height="22" width="113.5" x="149.5" y="20"></rect><text x="206.25" y="35">closed_stmt</text></g><path d="M263.0 31h10" /><path d="M273.0 31h10" /><g class="terminal ">
<path d="M283.0 31h0.0" /><path d="M337.0 31h0.0" /><rect height="22" rx="10" ry="10" width="54" x="283" y="20"></rect><text x="310" y="35">ELSE</text></g><path d="M337.0 31h10" /><path d="M347.0 31h10" /><g class="non-terminal ">
<path d="M357.0 31h0.0" /><path d="M470.5 31h0.0" /><rect height="22" width="113.5" x="357" y="20"></rect><text x="413.75" y="35">closed_stmt</text></g></g><path d="M470.5 31h10" /><path d="M 480.5 31 h 20 m -10 -10 v 20 m 10 -20 v 20"></path></g><style>/* <![CDATA[ */
	svg.railroad-diagram {
		background-color:hsl(30,20%,95%);
	}
	svg.railroad-diagram path {
		stroke-width:3;
		stroke:black;
		fill:rgba(0,0,0,0);
	}
	svg.railroad-diagram text {
		font:bold 14px monospace;
		text-anchor:middle;
	}
	svg.railroad-diagram text.label{
		text-anchor:start;
	}
	svg.railroad-diagram text.comment{
		font:italic 12px monospace;
	}
	svg.railroad-diagram rect{
		stroke-width:3;
		stroke:black;
		fill:hsl(120,100%,90%);
	}
	svg.railroad-diagram rect.group-box {
		stroke: gray;
		stroke-dasharray: 10 5;
		fill: none;
	}

/* ]]> */
</style></svg>